<svg width="254" height="25" viewBox="0 0 254 25" fill="none" xmlns="http://www.w3.org/2000/svg">
<path d="M28.457 9.30679C25.4803 12.812 23.5133 15.1256 17.1939 15.1256H9.96103L9.65818 14.8182V9.51234L9.96103 9.20496H22.912L23.2154 8.89757V0.738544L22.912 0.431152H1.30128L0.997803 0.738544V23.5883L1.30128 23.8956H17.1939C27.4872 23.8956 31.6654 18.9768 35.0224 15.0238C37.951 11.5755 39.9018 9.27896 45.9801 9.20496L46.2854 8.89821V0.748658L45.9732 0.438748C35.9078 0.536782 31.7803 5.39615 28.457 9.30679Z" fill="url(#paint0_linear_91_1194)"/>
<path d="M71.7976 7.3997C71.0671 6.56179 70.1679 5.89207 69.1605 5.4356C68.1531 4.97914 67.0608 4.74652 65.9572 4.7534C61.44 4.8508 58.9878 8.5116 58.9878 12.5329C58.9878 16.5859 61.4725 20.1151 65.9572 20.1151C67.141 20.0961 68.3064 19.8144 69.3711 19.2898C70.4359 18.7653 71.3741 18.0107 72.1198 17.0792L75.3145 19.5952C72.6362 22.8962 69.6352 24.4318 65.9572 24.4318C58.4395 24.4318 54.405 18.6807 54.405 12.5361C54.405 6.39152 58.4389 0.443652 65.9572 0.443652C67.6575 0.41524 69.3412 0.787226 70.8754 1.53029C72.4096 2.27335 73.7524 3.36718 74.7981 4.72556L71.7976 7.3997Z" fill="black"/>
<path d="M90.7384 14.6246H83.6728V23.9057H78.9626V0.931396H83.6728V10.3111H90.7384V0.931396H95.4498V23.9057H90.7384V14.6246Z" fill="black"/>
<path d="M99.4827 0.931396H104.16V23.9057H99.4827V0.931396Z" fill="black"/>
<path d="M118.131 6.78366C117.838 6.18029 117.383 5.67305 116.817 5.32034C116.252 4.96764 115.6 4.78382 114.936 4.79007C113.614 4.75782 112.259 5.41117 112.162 7.14354C112.1 8.84239 114.13 9.59441 115.453 9.98592C118.97 10.9011 122.681 12.6335 122.487 17.7971C122.293 22.3073 118.325 24.3989 114.682 24.3989C112.101 24.3989 108.812 23.3237 106.906 18.9084L110.455 16.849C111.552 19.2347 113.456 20.1828 114.778 20.1828C116.553 20.2157 117.812 19.0386 117.876 17.5359C118.005 15.3462 115.94 14.4639 114.327 14.0389C112.003 13.45 107.551 11.8492 107.615 7.17579C107.713 2.53463 111.455 0.508789 114.972 0.508789C117.683 0.508789 120.102 1.78324 121.618 4.75781L118.131 6.78366Z" fill="black"/>
<path d="M138.846 5.07993H130.263V10.3093H138.716V14.5248H130.263V19.6555H138.846V23.8716H125.617V0.897949H138.846V5.07993Z" fill="black"/>
<path d="M155.526 23.9075H142.975V1.03125H147.653V19.5288H155.526V23.9075Z" fill="black"/>
<path d="M168.626 6.78366C168.333 6.18029 167.878 5.67306 167.312 5.32036C166.747 4.96767 166.095 4.78386 165.431 4.79007C164.108 4.75782 162.753 5.41117 162.657 7.14354C162.594 8.84239 164.625 9.59441 165.947 9.98592C169.464 10.9011 173.175 12.6335 172.982 17.7971C172.788 22.3073 168.819 24.3989 165.176 24.3989C162.594 24.3989 159.303 23.3237 157.399 18.9084L160.949 16.849C162.046 19.2347 163.95 20.1828 165.272 20.1828C167.047 20.2157 168.305 19.0386 168.37 17.5359C168.499 15.3462 166.434 14.4639 164.82 14.0389C162.498 13.45 158.045 11.8492 158.109 7.17579C158.206 2.53463 161.949 0.508789 165.466 0.508789C168.177 0.508789 170.596 1.78324 172.113 4.75781L168.626 6.78366Z" fill="black"/>
<path d="M189.92 0.9646V5.01754H184.854V23.9067H180.144V5.01818H175.046V0.9646H189.92Z" fill="black"/>
<path d="M209.377 23.9072H204.085L198.696 15.4756H197.535V23.9072H192.856V0.998047H200.503C205.085 0.998047 208.537 3.08967 208.602 8.31841C208.634 12.1766 206.698 14.4301 203.731 15.1821L209.377 23.9072ZM200.535 11.3904C202.6 11.3904 203.955 10.1811 203.955 8.31841C203.955 6.3906 202.536 5.1484 200.535 5.1484H197.535V11.3904H200.535Z" fill="black"/>
<path d="M211.86 0.931396H216.538V23.9057H211.86V0.931396Z" fill="black"/>
<path d="M224.831 0.931396V9.91835L232.542 0.931396H238.124L229.444 11.4875L238.186 23.9057H232.766L226.085 14.7227L224.826 15.9971V23.9032H220.152V0.931396H224.831Z" fill="black"/>
<path d="M253.998 5.07993H245.415V10.3093H253.868V14.5248H245.415V19.6555H253.998V23.8716H240.771V0.897949H254L253.998 5.07993Z" fill="black"/>
<defs>
<linearGradient id="paint0_linear_91_1194" x1="0.997803" y1="12.1694" x2="46.2854" y2="12.1694" gradientUnits="userSpaceOnUse">
<stop stop-color="#2C5FC3"/>
<stop offset="1" stop-color="#3CC6CF"/>
</linearGradient>
</defs>
</svg>
